<mxfile host="app.diagrams.net" modified="2024-05-17T06:25:49.391Z" agent="Mozilla/5.0 (Windows NT 10.0; Win64; x64) AppleWebKit/537.36 (KHTML, like Gecko) Chrome/124.0.0.0 Safari/537.36 Edg/124.0.0.0" etag="SB-wUgcyBhvrYJ4BPjJ8" version="24.4.3" type="github">
  <diagram id="C5RBs43oDa-KdzZeNtuy" name="Page-1">
    <mxGraphModel dx="872" dy="473" grid="1" gridSize="10" guides="1" tooltips="1" connect="1" arrows="1" fold="1" page="1" pageScale="1" pageWidth="827" pageHeight="1169" math="0" shadow="0">
      <root>
        <mxCell id="WIyWlLk6GJQsqaUBKTNV-0" />
        <mxCell id="WIyWlLk6GJQsqaUBKTNV-1" parent="WIyWlLk6GJQsqaUBKTNV-0" />
        <UserObject label="Actor" tooltip="" id="6XuOz8T_ux7vXi8ncifP-0">
          <mxCell style="shape=umlActor;verticalLabelPosition=bottom;verticalAlign=top;html=1;outlineConnect=0;direction=east;fontFamily=Helvetica;labelPadding=0;" vertex="1" parent="WIyWlLk6GJQsqaUBKTNV-1">
            <mxGeometry x="211" y="527.5" width="30" height="60" as="geometry" />
          </mxCell>
        </UserObject>
        <mxCell id="6XuOz8T_ux7vXi8ncifP-1" value="Nhân viên kho" style="text;html=1;align=center;verticalAlign=middle;whiteSpace=wrap;rounded=0;" vertex="1" parent="WIyWlLk6GJQsqaUBKTNV-1">
          <mxGeometry x="176" y="601.5" width="100" height="30" as="geometry" />
        </mxCell>
        <mxCell id="6XuOz8T_ux7vXi8ncifP-2" value="" style="ellipse;whiteSpace=wrap;html=1;" vertex="1" parent="WIyWlLk6GJQsqaUBKTNV-1">
          <mxGeometry x="521" y="360" width="130" height="45" as="geometry" />
        </mxCell>
        <mxCell id="6XuOz8T_ux7vXi8ncifP-3" value="Đăng nhập" style="text;html=1;align=center;verticalAlign=middle;whiteSpace=wrap;rounded=0;" vertex="1" parent="WIyWlLk6GJQsqaUBKTNV-1">
          <mxGeometry x="526" y="367.5" width="120" height="30" as="geometry" />
        </mxCell>
        <mxCell id="6XuOz8T_ux7vXi8ncifP-4" value="" style="ellipse;whiteSpace=wrap;html=1;" vertex="1" parent="WIyWlLk6GJQsqaUBKTNV-1">
          <mxGeometry x="521" y="440" width="130" height="45" as="geometry" />
        </mxCell>
        <mxCell id="6XuOz8T_ux7vXi8ncifP-5" value="Đổi mật khẩu" style="text;html=1;align=center;verticalAlign=middle;whiteSpace=wrap;rounded=0;" vertex="1" parent="WIyWlLk6GJQsqaUBKTNV-1">
          <mxGeometry x="526" y="447.5" width="120" height="30" as="geometry" />
        </mxCell>
        <mxCell id="6XuOz8T_ux7vXi8ncifP-10" value="" style="ellipse;whiteSpace=wrap;html=1;" vertex="1" parent="WIyWlLk6GJQsqaUBKTNV-1">
          <mxGeometry x="521" y="520" width="130" height="45" as="geometry" />
        </mxCell>
        <mxCell id="6XuOz8T_ux7vXi8ncifP-11" value="Xuất phiếu nhập,&lt;div&gt;dữ liệu hàng hóa&lt;/div&gt;" style="text;html=1;align=center;verticalAlign=middle;whiteSpace=wrap;rounded=0;" vertex="1" parent="WIyWlLk6GJQsqaUBKTNV-1">
          <mxGeometry x="526" y="527.5" width="120" height="30" as="geometry" />
        </mxCell>
        <mxCell id="6XuOz8T_ux7vXi8ncifP-12" value="" style="ellipse;whiteSpace=wrap;html=1;" vertex="1" parent="WIyWlLk6GJQsqaUBKTNV-1">
          <mxGeometry x="521" y="601.5" width="130" height="45" as="geometry" />
        </mxCell>
        <mxCell id="6XuOz8T_ux7vXi8ncifP-13" value="Xem và tìm kiếm&lt;div&gt;hàng hóa&lt;/div&gt;" style="text;html=1;align=center;verticalAlign=middle;whiteSpace=wrap;rounded=0;" vertex="1" parent="WIyWlLk6GJQsqaUBKTNV-1">
          <mxGeometry x="526" y="609" width="120" height="30" as="geometry" />
        </mxCell>
        <mxCell id="6XuOz8T_ux7vXi8ncifP-16" value="" style="ellipse;whiteSpace=wrap;html=1;" vertex="1" parent="WIyWlLk6GJQsqaUBKTNV-1">
          <mxGeometry x="521" y="680" width="130" height="45" as="geometry" />
        </mxCell>
        <mxCell id="6XuOz8T_ux7vXi8ncifP-17" value="Đăng xuất" style="text;html=1;align=center;verticalAlign=middle;whiteSpace=wrap;rounded=0;" vertex="1" parent="WIyWlLk6GJQsqaUBKTNV-1">
          <mxGeometry x="526" y="687.5" width="120" height="30" as="geometry" />
        </mxCell>
        <mxCell id="6XuOz8T_ux7vXi8ncifP-18" value="" style="endArrow=none;html=1;rounded=0;exitX=0.5;exitY=0.5;exitDx=0;exitDy=0;exitPerimeter=0;entryX=0;entryY=0.5;entryDx=0;entryDy=0;" edge="1" parent="WIyWlLk6GJQsqaUBKTNV-1" source="6XuOz8T_ux7vXi8ncifP-0" target="6XuOz8T_ux7vXi8ncifP-2">
          <mxGeometry width="50" height="50" relative="1" as="geometry">
            <mxPoint x="231" y="460" as="sourcePoint" />
            <mxPoint x="281" y="410" as="targetPoint" />
          </mxGeometry>
        </mxCell>
        <mxCell id="6XuOz8T_ux7vXi8ncifP-19" value="" style="endArrow=none;html=1;rounded=0;entryX=0;entryY=0.5;entryDx=0;entryDy=0;exitX=0.5;exitY=0.5;exitDx=0;exitDy=0;exitPerimeter=0;" edge="1" parent="WIyWlLk6GJQsqaUBKTNV-1" source="6XuOz8T_ux7vXi8ncifP-0" target="6XuOz8T_ux7vXi8ncifP-4">
          <mxGeometry width="50" height="50" relative="1" as="geometry">
            <mxPoint x="231" y="490" as="sourcePoint" />
            <mxPoint x="281" y="440" as="targetPoint" />
          </mxGeometry>
        </mxCell>
        <mxCell id="6XuOz8T_ux7vXi8ncifP-20" value="" style="endArrow=none;html=1;rounded=0;exitX=0.5;exitY=0.5;exitDx=0;exitDy=0;exitPerimeter=0;entryX=0;entryY=0.5;entryDx=0;entryDy=0;" edge="1" parent="WIyWlLk6GJQsqaUBKTNV-1" source="6XuOz8T_ux7vXi8ncifP-0" target="6XuOz8T_ux7vXi8ncifP-16">
          <mxGeometry width="50" height="50" relative="1" as="geometry">
            <mxPoint x="291" y="687.5" as="sourcePoint" />
            <mxPoint x="411" y="870" as="targetPoint" />
          </mxGeometry>
        </mxCell>
        <mxCell id="6XuOz8T_ux7vXi8ncifP-22" value="" style="endArrow=none;html=1;rounded=0;entryX=0;entryY=0.5;entryDx=0;entryDy=0;exitX=0.5;exitY=0.5;exitDx=0;exitDy=0;exitPerimeter=0;" edge="1" parent="WIyWlLk6GJQsqaUBKTNV-1" source="6XuOz8T_ux7vXi8ncifP-0" target="6XuOz8T_ux7vXi8ncifP-12">
          <mxGeometry width="50" height="50" relative="1" as="geometry">
            <mxPoint x="291" y="687.5" as="sourcePoint" />
            <mxPoint x="341" y="637.5" as="targetPoint" />
          </mxGeometry>
        </mxCell>
        <mxCell id="6XuOz8T_ux7vXi8ncifP-23" value="" style="endArrow=none;html=1;rounded=0;entryX=0;entryY=0.5;entryDx=0;entryDy=0;exitX=0.5;exitY=0.5;exitDx=0;exitDy=0;exitPerimeter=0;" edge="1" parent="WIyWlLk6GJQsqaUBKTNV-1" source="6XuOz8T_ux7vXi8ncifP-0" target="6XuOz8T_ux7vXi8ncifP-10">
          <mxGeometry width="50" height="50" relative="1" as="geometry">
            <mxPoint x="291" y="687.5" as="sourcePoint" />
            <mxPoint x="341" y="637.5" as="targetPoint" />
          </mxGeometry>
        </mxCell>
      </root>
    </mxGraphModel>
  </diagram>
</mxfile>
